<svg xmlns="http://www.w3.org/2000/svg" xmlns:xlink="http://www.w3.org/1999/xlink" width="1080" zoomAndPan="magnify" viewBox="0 0 810 809.999993" height="1080" preserveAspectRatio="xMidYMid meet" version="1.0"><defs><clipPath id="fb94d18947"><path d="M 0 0 L 793.5 0 L 793.5 810 L 0 810 Z M 0 0 " clip-rule="nonzero"/></clipPath><clipPath id="d4a8c305a6"><path d="M 4 283.640625 L 805 283.640625 L 805 507.140625 L 4 507.140625 Z M 4 283.640625 " clip-rule="nonzero"/></clipPath><clipPath id="efc7fd75dd"><path d="M 118.355469 395.566406 L 461.105469 395.566406 L 461.105469 810 L 118.355469 810 Z M 118.355469 395.566406 " clip-rule="nonzero"/></clipPath><clipPath id="9b0423330d"><path d="M 236.222656 403.097656 L 381.722656 403.097656 L 381.722656 548.597656 L 236.222656 548.597656 Z M 236.222656 403.097656 " clip-rule="nonzero"/></clipPath></defs><rect x="-81" width="972" fill="#ffffff" y="-80.999999" height="971.999992" fill-opacity="1"/><rect x="-81" width="972" fill="#f8fbfc" y="-80.999999" height="971.999992" fill-opacity="1"/><rect x="-81" width="972" fill="#04153b" y="-80.999999" height="971.999992" fill-opacity="1"/><g clip-path="url(#fb94d18947)"><path fill="#f8fbfc" d="M 0.015625 0.140625 C 10.625 1.65625 21.203125 3.445312 31.75 5.507812 C 42.292969 7.574219 52.792969 9.914062 63.25 12.527344 C 73.703125 15.140625 84.105469 18.023438 94.449219 21.179688 C 104.796875 24.335938 115.078125 27.757812 125.292969 31.449219 C 135.507812 35.140625 145.648438 39.097656 155.714844 43.316406 C 165.78125 47.539062 175.761719 52.019531 185.65625 56.757812 C 195.550781 61.5 205.351562 66.496094 215.058594 71.746094 C 224.761719 77 234.363281 82.5 243.863281 88.253906 C 253.359375 94.003906 262.742188 100.003906 272.011719 106.242188 C 281.277344 112.484375 290.425781 118.964844 299.449219 125.683594 C 308.46875 132.402344 317.359375 139.351562 326.121094 146.535156 C 334.878906 153.71875 343.496094 161.125 351.972656 168.753906 C 360.453125 176.386719 368.78125 184.234375 376.960938 192.300781 C 385.140625 200.367188 393.160156 208.640625 401.027344 217.125 C 408.890625 225.609375 416.589844 234.292969 424.128906 243.179688 C 431.664062 252.0625 439.023438 261.140625 446.214844 270.410156 C 453.40625 279.679688 460.417969 289.132812 467.25 298.769531 C 474.082031 308.402344 480.726562 318.210938 487.183594 328.191406 C 493.644531 338.175781 499.910156 348.320312 505.984375 358.628906 C 512.058594 368.9375 517.933594 379.398438 523.609375 390.011719 C 529.285156 400.625 534.757812 411.382812 540.023438 422.28125 C 545.292969 433.183594 550.351562 444.214844 555.199219 455.378906 C 560.046875 466.542969 564.683594 477.828125 569.101562 489.230469 C 573.523438 500.636719 577.722656 512.152344 581.707031 523.777344 C 585.691406 535.402344 589.449219 547.125 592.988281 558.945312 C 596.527344 570.765625 599.835938 582.671875 602.921875 594.664062 C 606.007812 606.65625 608.863281 618.726562 611.492188 630.867188 C 614.117188 643.007812 616.511719 655.214844 618.675781 667.480469 C 620.839844 679.746094 622.769531 692.066406 624.464844 704.433594 C 626.160156 716.800781 627.621094 729.207031 628.847656 741.648438 C 630.070312 754.09375 631.058594 766.5625 631.808594 779.058594 C 632.558594 791.550781 633.074219 804.0625 633.347656 816.582031 L 793.75 819.304688 C 793.417969 806.578125 792.785156 793.871094 791.851562 781.171875 C 790.921875 768.476562 789.691406 755.808594 788.160156 743.164062 C 786.628906 730.519531 784.804688 717.917969 782.679688 705.351562 C 780.554688 692.789062 778.136719 680.277344 775.421875 667.820312 C 772.707031 655.359375 769.699219 642.964844 766.398438 630.636719 C 763.101562 618.308594 759.511719 606.058594 755.632812 593.882812 C 751.757812 581.710938 747.59375 569.628906 743.144531 557.636719 C 738.699219 545.640625 733.96875 533.75 728.960938 521.964844 C 723.953125 510.175781 718.667969 498.503906 713.109375 486.945312 C 707.550781 475.382812 701.71875 463.953125 695.621094 452.644531 C 689.523438 441.339844 683.160156 430.171875 676.53125 419.140625 C 669.90625 408.109375 663.023438 397.226562 655.886719 386.496094 C 648.746094 375.761719 641.355469 365.191406 633.71875 354.777344 C 626.078125 344.367188 618.199219 334.125 610.078125 324.054688 C 601.957031 313.984375 593.601562 304.09375 585.015625 294.382812 C 576.425781 284.675781 567.613281 275.15625 558.574219 265.832031 C 549.539062 256.503906 540.285156 247.378906 530.820312 238.453125 C 521.351562 229.527344 511.675781 220.808594 501.796875 212.304688 C 491.917969 203.796875 481.84375 195.507812 471.574219 187.4375 C 461.304688 179.367188 450.847656 171.523438 440.207031 163.910156 C 429.566406 156.292969 418.753906 148.910156 407.765625 141.761719 C 396.777344 134.613281 385.625 127.707031 374.308594 121.039062 C 362.996094 114.375 351.527344 107.957031 339.910156 101.789062 C 328.292969 95.621094 316.539062 89.707031 304.640625 84.050781 C 292.746094 78.390625 280.722656 72.992188 268.570312 67.855469 C 256.417969 62.71875 244.152344 57.84375 231.773438 53.238281 C 219.390625 48.632812 206.90625 44.296875 194.320312 40.230469 C 181.738281 36.167969 169.0625 32.375 156.296875 28.859375 C 143.53125 25.34375 130.691406 22.105469 117.773438 19.148438 C 104.859375 16.1875 91.878906 13.507812 78.832031 11.113281 C 65.789062 8.714844 52.695312 6.601562 39.554688 4.773438 C 26.410156 2.941406 13.230469 1.398438 0.015625 0.140625 Z M 0.015625 0.140625 " fill-opacity="1" fill-rule="nonzero"/></g><g clip-path="url(#d4a8c305a6)"><path fill="#f8fbfc" d="M 409.964844 283.652344 C 404.925781 283.609375 399.890625 283.644531 394.851562 283.761719 C 389.8125 283.878906 384.777344 284.078125 379.746094 284.359375 C 374.714844 284.636719 369.691406 284.996094 364.671875 285.4375 C 359.652344 285.878906 354.640625 286.398438 349.636719 287 C 344.632812 287.601562 339.640625 288.28125 334.660156 289.042969 C 329.679688 289.804688 324.710938 290.648438 319.757812 291.566406 C 314.804688 292.488281 309.863281 293.488281 304.941406 294.570312 C 300.019531 295.648438 295.117188 296.808594 290.234375 298.042969 C 285.347656 299.28125 280.484375 300.597656 275.640625 301.992188 C 270.800781 303.382812 265.980469 304.855469 261.183594 306.402344 C 256.390625 307.949219 251.621094 309.574219 246.875 311.277344 C 242.132812 312.976562 237.417969 314.753906 232.730469 316.605469 C 228.046875 318.460938 223.390625 320.386719 218.765625 322.390625 C 214.144531 324.390625 209.550781 326.46875 204.992188 328.617188 C 200.4375 330.765625 195.914062 332.988281 191.429688 335.28125 C 186.941406 337.578125 182.492188 339.945312 178.082031 342.382812 C 173.671875 344.820312 169.304688 347.328125 164.972656 349.90625 C 160.644531 352.480469 156.355469 355.128906 152.109375 357.84375 C 147.867188 360.558594 143.667969 363.34375 139.511719 366.191406 C 135.355469 369.042969 131.246094 371.960938 127.183594 374.941406 C 123.125 377.925781 119.109375 380.972656 115.144531 384.082031 C 111.183594 387.195312 107.269531 390.367188 103.40625 393.605469 C 99.546875 396.839844 95.734375 400.140625 91.980469 403.5 C 88.222656 406.859375 84.523438 410.277344 80.875 413.753906 C 77.230469 417.230469 73.640625 420.765625 70.109375 424.359375 C 66.574219 427.953125 63.101562 431.601562 59.683594 435.308594 C 56.269531 439.011719 52.914062 442.773438 49.617188 446.585938 C 46.324219 450.394531 43.089844 454.261719 39.917969 458.175781 C 36.75 462.09375 33.640625 466.058594 30.597656 470.074219 C 27.554688 474.09375 24.578125 478.15625 21.664062 482.265625 C 18.75 486.378906 15.902344 490.535156 13.125 494.738281 C 10.34375 498.941406 7.632812 503.191406 4.988281 507.480469 C 11.117188 500.167969 17.441406 493.03125 23.960938 486.070312 C 30.484375 479.105469 37.1875 472.324219 44.078125 465.726562 C 50.96875 459.128906 58.035156 452.726562 65.277344 446.515625 C 72.519531 440.308594 79.925781 434.300781 87.496094 428.496094 C 95.066406 422.691406 102.789062 417.097656 110.664062 411.71875 C 118.542969 406.335938 126.5625 401.175781 134.71875 396.234375 C 142.878906 391.289062 151.167969 386.574219 159.585938 382.085938 C 168.003906 377.597656 176.535156 373.34375 185.1875 369.324219 C 193.839844 365.300781 202.59375 361.519531 211.449219 357.976562 C 220.308594 354.4375 229.253906 351.140625 238.292969 348.089844 C 247.332031 345.035156 256.445312 342.234375 265.636719 339.683594 C 274.832031 337.128906 284.085938 334.828125 293.402344 332.785156 C 302.71875 330.738281 312.085938 328.949219 321.5 327.414062 C 330.917969 325.882812 340.367188 324.609375 349.851562 323.59375 C 359.339844 322.578125 368.84375 321.824219 378.371094 321.328125 C 387.898438 320.832031 397.429688 320.597656 406.96875 320.625 C 416.425781 320.667969 425.871094 320.96875 435.3125 321.523438 C 444.75 322.078125 454.167969 322.886719 463.5625 323.953125 C 472.957031 325.019531 482.316406 326.339844 491.640625 327.914062 C 500.964844 329.488281 510.238281 331.316406 519.460938 333.390625 C 528.6875 335.46875 537.847656 337.796875 546.945312 340.371094 C 556.042969 342.945312 565.066406 345.765625 574.007812 348.828125 C 582.953125 351.894531 591.808594 355.199219 600.574219 358.742188 C 609.339844 362.289062 618.003906 366.070312 626.566406 370.082031 C 635.125 374.097656 643.570312 378.34375 651.902344 382.816406 C 660.230469 387.289062 668.433594 391.988281 676.507812 396.90625 C 684.585938 401.824219 692.519531 406.957031 700.316406 412.308594 C 708.113281 417.65625 715.757812 423.214844 723.253906 428.980469 C 730.75 434.742188 738.082031 440.707031 745.253906 446.871094 C 752.425781 453.03125 759.421875 459.386719 766.25 465.925781 C 773.074219 472.46875 779.71875 479.191406 786.179688 486.09375 C 792.644531 493 798.914062 500.070312 804.992188 507.316406 C 802.402344 503.113281 799.746094 498.957031 797.023438 494.839844 C 794.304688 490.722656 791.519531 486.648438 788.671875 482.621094 C 785.820312 478.589844 782.910156 474.609375 779.9375 470.671875 C 776.960938 466.734375 773.925781 462.84375 770.832031 459 C 767.734375 455.160156 764.578125 451.367188 761.363281 447.621094 C 758.148438 443.878906 754.875 440.1875 751.542969 436.546875 C 748.210938 432.910156 744.824219 429.320312 741.378906 425.789062 C 737.933594 422.253906 734.433594 418.777344 730.882812 415.351562 C 727.328125 411.929688 723.722656 408.5625 720.0625 405.253906 C 716.402344 401.941406 712.691406 398.691406 708.929688 395.496094 C 705.167969 392.304688 701.355469 389.171875 697.496094 386.097656 C 693.632812 383.023438 689.726562 380.011719 685.773438 377.0625 C 681.816406 374.109375 677.816406 371.222656 673.769531 368.398438 C 669.722656 365.574219 665.632812 362.8125 661.503906 360.117188 C 657.371094 357.417969 653.195312 354.789062 648.980469 352.222656 C 644.765625 349.660156 640.507812 347.160156 636.214844 344.730469 C 631.921875 342.296875 627.589844 339.933594 623.222656 337.640625 C 618.855469 335.34375 614.449219 333.117188 610.011719 330.960938 C 605.574219 328.804688 601.101562 326.71875 596.597656 324.703125 C 592.09375 322.6875 587.558594 320.742188 582.996094 318.867188 C 578.429688 316.996094 573.835938 315.195312 569.214844 313.464844 C 564.59375 311.734375 559.945312 310.078125 555.273438 308.496094 C 550.597656 306.914062 545.902344 305.40625 541.179688 303.96875 C 536.457031 302.535156 531.714844 301.175781 526.953125 299.886719 C 522.1875 298.601562 517.40625 297.390625 512.601562 296.257812 C 507.800781 295.121094 502.980469 294.058594 498.144531 293.074219 C 493.3125 292.09375 488.460938 291.183594 483.597656 290.351562 C 478.734375 289.519531 473.859375 288.765625 468.96875 288.085938 C 464.082031 287.410156 459.183594 286.808594 454.277344 286.285156 C 449.371094 285.757812 444.457031 285.3125 439.539062 284.941406 C 434.617188 284.574219 429.691406 284.28125 424.761719 284.066406 C 419.832031 283.851562 414.898438 283.710938 409.964844 283.652344 Z M 409.964844 283.652344 " fill-opacity="1" fill-rule="nonzero"/></g><g clip-path="url(#efc7fd75dd)"><path fill="#f8fbfc" d="M 461.054688 395.554688 C 458.378906 406.191406 455.136719 416.742188 451.324219 427.203125 C 447.511719 437.664062 443.140625 448.003906 438.214844 458.230469 C 433.285156 468.453125 427.816406 478.527344 421.800781 488.457031 C 415.785156 498.382812 409.246094 508.136719 402.179688 517.707031 C 395.113281 527.28125 387.542969 536.652344 379.46875 545.8125 C 371.390625 554.976562 362.832031 563.910156 353.792969 572.609375 C 344.753906 581.308594 335.257812 589.75 325.308594 597.9375 C 315.359375 606.125 304.984375 614.027344 294.179688 621.652344 C 294.429688 622.109375 294.679688 622.566406 294.925781 623.023438 L 293.523438 622.148438 C 293.742188 621.984375 293.960938 621.816406 294.179688 621.652344 C 292.195312 617.4375 290.085938 613.265625 287.851562 609.144531 C 285.621094 605.019531 283.265625 600.949219 280.792969 596.925781 C 278.320312 592.90625 275.730469 588.9375 273.023438 585.027344 C 270.316406 581.121094 267.496094 577.269531 264.5625 573.484375 C 261.628906 569.695312 258.585938 565.972656 255.433594 562.316406 C 252.277344 558.664062 249.019531 555.078125 245.65625 551.5625 C 242.289062 548.046875 238.824219 544.605469 235.253906 541.242188 C 231.6875 537.878906 228.019531 534.59375 224.257812 531.386719 C 220.496094 528.179688 216.640625 525.054688 212.695312 522.015625 C 208.75 518.976562 204.714844 516.023438 200.59375 513.160156 C 196.476562 510.296875 192.273438 507.519531 187.988281 504.839844 C 183.703125 502.15625 179.34375 499.566406 174.90625 497.070312 C 170.46875 494.578125 165.960938 492.179688 161.382812 489.878906 C 156.804688 487.582031 152.160156 485.382812 147.453125 483.285156 C 142.746094 481.183594 137.976562 479.191406 133.152344 477.296875 C 128.324219 475.40625 123.445312 473.617188 118.515625 471.9375 L 119.929688 472.554688 C 125.246094 477.699219 130.402344 483.027344 135.398438 488.542969 C 140.394531 494.058594 145.21875 499.746094 149.871094 505.609375 C 154.523438 511.46875 158.996094 517.492188 163.289062 523.675781 C 167.578125 529.859375 171.679688 536.191406 175.585938 542.671875 C 179.496094 549.148438 183.207031 555.761719 186.71875 562.507812 C 190.230469 569.253906 193.535156 576.117188 196.632812 583.101562 C 199.730469 590.085938 202.613281 597.171875 205.285156 604.363281 C 207.957031 611.558594 210.40625 618.835938 212.640625 626.203125 C 214.871094 633.570312 216.878906 641.011719 218.664062 648.523438 C 220.449219 656.035156 222.007812 663.605469 223.335938 671.230469 C 224.664062 678.855469 225.761719 686.519531 226.628906 694.222656 C 227.496094 701.925781 228.132812 709.652344 228.53125 717.402344 C 228.933594 725.148438 229.101562 732.90625 229.039062 740.664062 C 228.972656 748.425781 228.675781 756.179688 228.144531 763.917969 C 227.609375 771.65625 226.847656 779.371094 225.851562 787.054688 C 224.855469 794.738281 223.628906 802.378906 222.171875 809.976562 C 229.871094 805.148438 237.453125 800.023438 244.917969 794.601562 C 252.386719 789.183594 259.722656 783.476562 266.929688 777.484375 C 274.136719 771.496094 281.203125 765.226562 288.125 758.683594 C 295.050781 752.144531 301.820312 745.335938 308.433594 738.265625 C 315.050781 731.199219 321.5 723.875 327.78125 716.304688 C 334.066406 708.730469 340.171875 700.921875 346.101562 692.875 C 352.03125 684.824219 357.773438 676.554688 363.328125 668.058594 C 368.882812 659.5625 374.238281 650.859375 379.398438 641.945312 C 384.558594 633.03125 389.511719 623.925781 394.257812 614.625 C 399.003906 605.328125 403.539062 595.851562 407.855469 586.199219 C 412.171875 576.546875 416.269531 566.734375 420.140625 556.761719 C 424.011719 546.792969 427.65625 536.679688 431.070312 526.421875 C 434.484375 516.167969 437.664062 505.789062 440.609375 495.285156 C 443.554688 484.78125 446.257812 474.171875 448.71875 463.460938 C 451.183594 452.746094 453.402344 441.945312 455.375 431.058594 C 457.347656 420.171875 459.074219 409.21875 460.550781 398.195312 Z M 461.054688 395.554688 " fill-opacity="1" fill-rule="nonzero"/></g><g clip-path="url(#9b0423330d)"><path fill="#f8fbfc" d="M 381.417969 475.695312 C 381.417969 476.882812 381.390625 478.070312 381.332031 479.257812 C 381.273438 480.445312 381.183594 481.628906 381.070312 482.8125 C 380.953125 483.992188 380.804688 485.171875 380.632812 486.347656 C 380.457031 487.523438 380.253906 488.691406 380.023438 489.859375 C 379.792969 491.023438 379.53125 492.183594 379.242188 493.335938 C 378.953125 494.488281 378.636719 495.632812 378.292969 496.769531 C 377.945312 497.90625 377.574219 499.035156 377.175781 500.152344 C 376.773438 501.269531 376.347656 502.378906 375.890625 503.476562 C 375.4375 504.574219 374.957031 505.660156 374.449219 506.734375 C 373.941406 507.808594 373.40625 508.871094 372.847656 509.917969 C 372.285156 510.964844 371.699219 512 371.089844 513.015625 C 370.480469 514.035156 369.84375 515.039062 369.183594 516.027344 C 368.523438 517.015625 367.839844 517.988281 367.132812 518.941406 C 366.421875 519.894531 365.691406 520.832031 364.9375 521.75 C 364.183594 522.667969 363.410156 523.566406 362.613281 524.449219 C 361.8125 525.328125 360.996094 526.1875 360.15625 527.027344 C 359.316406 527.871094 358.453125 528.6875 357.574219 529.484375 C 356.695312 530.285156 355.792969 531.058594 354.875 531.8125 C 353.957031 532.566406 353.019531 533.296875 352.066406 534.003906 C 351.113281 534.714844 350.140625 535.398438 349.152344 536.058594 C 348.164062 536.71875 347.160156 537.351562 346.144531 537.964844 C 345.125 538.574219 344.089844 539.160156 343.042969 539.71875 C 341.996094 540.28125 340.933594 540.8125 339.859375 541.324219 C 338.785156 541.832031 337.699219 542.3125 336.601562 542.765625 C 335.503906 543.222656 334.394531 543.648438 333.277344 544.046875 C 332.160156 544.449219 331.03125 544.820312 329.894531 545.167969 C 328.757812 545.511719 327.613281 545.828125 326.460938 546.117188 C 325.308594 546.40625 324.148438 546.664062 322.984375 546.898438 C 321.816406 547.128906 320.648438 547.332031 319.472656 547.507812 C 318.296875 547.679688 317.117188 547.828125 315.9375 547.941406 C 314.753906 548.058594 313.570312 548.148438 312.382812 548.203125 C 311.195312 548.261719 310.007812 548.292969 308.820312 548.292969 C 307.632812 548.292969 306.445312 548.261719 305.257812 548.203125 C 304.070312 548.148438 302.886719 548.058594 301.703125 547.941406 C 300.523438 547.828125 299.34375 547.679688 298.167969 547.507812 C 296.992188 547.332031 295.824219 547.128906 294.65625 546.898438 C 293.492188 546.664062 292.332031 546.40625 291.179688 546.117188 C 290.027344 545.828125 288.882812 545.511719 287.746094 545.167969 C 286.609375 544.820312 285.480469 544.449219 284.363281 544.046875 C 283.242188 543.648438 282.136719 543.222656 281.039062 542.765625 C 279.941406 542.3125 278.855469 541.832031 277.78125 541.320312 C 276.707031 540.8125 275.644531 540.28125 274.597656 539.71875 C 273.550781 539.160156 272.515625 538.574219 271.496094 537.964844 C 270.476562 537.351562 269.476562 536.71875 268.488281 536.058594 C 267.5 535.398438 266.527344 534.714844 265.574219 534.003906 C 264.621094 533.296875 263.683594 532.566406 262.765625 531.8125 C 261.847656 531.058594 260.945312 530.285156 260.066406 529.484375 C 259.1875 528.6875 258.324219 527.871094 257.484375 527.027344 C 256.644531 526.1875 255.828125 525.328125 255.027344 524.449219 C 254.230469 523.566406 253.457031 522.667969 252.703125 521.75 C 251.949219 520.832031 251.21875 519.894531 250.507812 518.941406 C 249.800781 517.988281 249.117188 517.015625 248.457031 516.027344 C 247.796875 515.039062 247.160156 514.035156 246.550781 513.015625 C 245.941406 512 245.355469 510.964844 244.792969 509.917969 C 244.234375 508.871094 243.699219 507.808594 243.191406 506.734375 C 242.683594 505.660156 242.203125 504.574219 241.75 503.476562 C 241.292969 502.378906 240.867188 501.269531 240.464844 500.152344 C 240.066406 499.035156 239.695312 497.90625 239.347656 496.769531 C 239.003906 495.632812 238.6875 494.488281 238.398438 493.335938 C 238.109375 492.183594 237.847656 491.023438 237.617188 489.859375 C 237.386719 488.691406 237.183594 487.523438 237.007812 486.347656 C 236.832031 485.171875 236.6875 483.992188 236.570312 482.8125 C 236.457031 481.628906 236.367188 480.445312 236.308594 479.257812 C 236.25 478.070312 236.222656 476.882812 236.222656 475.695312 C 236.222656 474.507812 236.25 473.320312 236.308594 472.132812 C 236.367188 470.945312 236.457031 469.761719 236.570312 468.578125 C 236.6875 467.398438 236.835938 466.21875 237.007812 465.042969 C 237.183594 463.867188 237.386719 462.695312 237.617188 461.53125 C 237.847656 460.367188 238.109375 459.207031 238.398438 458.054688 C 238.6875 456.902344 239.003906 455.757812 239.347656 454.621094 C 239.695312 453.484375 240.066406 452.355469 240.464844 451.238281 C 240.867188 450.117188 241.292969 449.011719 241.75 447.914062 C 242.203125 446.816406 242.683594 445.730469 243.191406 444.65625 C 243.699219 443.582031 244.234375 442.519531 244.792969 441.472656 C 245.355469 440.425781 245.941406 439.390625 246.550781 438.371094 C 247.160156 437.351562 247.796875 436.347656 248.457031 435.363281 C 249.117188 434.375 249.800781 433.402344 250.507812 432.449219 C 251.21875 431.496094 251.949219 430.558594 252.703125 429.640625 C 253.457031 428.722656 254.230469 427.820312 255.027344 426.941406 C 255.828125 426.0625 256.644531 425.199219 257.484375 424.359375 C 258.324219 423.519531 259.1875 422.703125 260.066406 421.902344 C 260.945312 421.105469 261.847656 420.328125 262.765625 419.574219 C 263.683594 418.824219 264.621094 418.089844 265.574219 417.382812 C 266.527344 416.675781 267.5 415.992188 268.488281 415.332031 C 269.476562 414.671875 270.476562 414.035156 271.496094 413.425781 C 272.515625 412.816406 273.550781 412.230469 274.597656 411.667969 C 275.644531 411.109375 276.707031 410.574219 277.78125 410.066406 C 278.855469 409.558594 279.941406 409.078125 281.039062 408.625 C 282.136719 408.167969 283.242188 407.742188 284.363281 407.339844 C 285.480469 406.941406 286.609375 406.566406 287.746094 406.222656 C 288.882812 405.878906 290.027344 405.5625 291.179688 405.273438 C 292.332031 404.984375 293.492188 404.722656 294.65625 404.492188 C 295.824219 404.261719 296.992188 404.058594 298.167969 403.882812 C 299.34375 403.707031 300.523438 403.5625 301.703125 403.445312 C 302.886719 403.332031 304.070312 403.242188 305.257812 403.183594 C 306.445312 403.125 307.632812 403.097656 308.820312 403.097656 C 310.007812 403.097656 311.195312 403.125 312.382812 403.183594 C 313.570312 403.242188 314.753906 403.332031 315.9375 403.445312 C 317.117188 403.5625 318.296875 403.707031 319.472656 403.882812 C 320.648438 404.058594 321.816406 404.261719 322.984375 404.492188 C 324.148438 404.722656 325.308594 404.984375 326.460938 405.273438 C 327.613281 405.5625 328.757812 405.878906 329.894531 406.222656 C 331.03125 406.566406 332.160156 406.941406 333.277344 407.339844 C 334.394531 407.742188 335.503906 408.167969 336.601562 408.625 C 337.699219 409.078125 338.785156 409.558594 339.859375 410.066406 C 340.933594 410.574219 341.996094 411.109375 343.042969 411.667969 C 344.089844 412.230469 345.125 412.816406 346.144531 413.425781 C 347.160156 414.035156 348.164062 414.671875 349.152344 415.332031 C 350.140625 415.992188 351.113281 416.675781 352.066406 417.382812 C 353.019531 418.089844 353.957031 418.824219 354.875 419.574219 C 355.792969 420.328125 356.695312 421.105469 357.574219 421.902344 C 358.453125 422.703125 359.316406 423.519531 360.15625 424.359375 C 360.996094 425.199219 361.8125 426.0625 362.613281 426.941406 C 363.410156 427.820312 364.183594 428.722656 364.9375 429.640625 C 365.691406 430.558594 366.421875 431.496094 367.132812 432.449219 C 367.839844 433.402344 368.523438 434.375 369.183594 435.363281 C 369.84375 436.347656 370.476562 437.351562 371.089844 438.371094 C 371.699219 439.390625 372.285156 440.425781 372.84375 441.472656 C 373.40625 442.519531 373.941406 443.582031 374.449219 444.65625 C 374.957031 445.730469 375.4375 446.816406 375.890625 447.914062 C 376.347656 449.011719 376.773438 450.117188 377.175781 451.238281 C 377.574219 452.355469 377.945312 453.484375 378.292969 454.621094 C 378.636719 455.757812 378.953125 456.902344 379.242188 458.054688 C 379.53125 459.207031 379.792969 460.367188 380.023438 461.53125 C 380.253906 462.695312 380.457031 463.867188 380.632812 465.042969 C 380.804688 466.21875 380.953125 467.398438 381.070312 468.578125 C 381.183594 469.761719 381.273438 470.945312 381.332031 472.132812 C 381.390625 473.320312 381.417969 474.507812 381.417969 475.695312 Z M 381.417969 475.695312 " fill-opacity="1" fill-rule="nonzero"/></g><path fill="#04153b" d="M 364.625 493.03125 C 366.300781 487.609375 367.203125 481.847656 367.203125 475.867188 C 367.203125 443.832031 341.390625 418.015625 309.355469 418.015625 C 309.25 418.015625 309.148438 418.023438 309.042969 418.027344 C 307.328125 420.152344 305.808594 422.40625 304.476562 424.789062 C 303.144531 427.171875 302.023438 429.648438 301.113281 432.222656 C 300.203125 434.796875 299.511719 437.425781 299.046875 440.117188 C 298.582031 442.804688 298.34375 445.511719 298.335938 448.242188 C 298.335938 449.828125 298.414062 451.40625 298.570312 452.984375 C 298.726562 454.558594 298.957031 456.125 299.265625 457.675781 C 299.574219 459.230469 299.960938 460.765625 300.417969 462.28125 C 300.878906 463.796875 301.414062 465.285156 302.019531 466.75 C 302.625 468.210938 303.300781 469.640625 304.046875 471.039062 C 304.792969 472.4375 305.605469 473.792969 306.488281 475.109375 C 307.367188 476.425781 308.308594 477.695312 309.3125 478.921875 C 310.320312 480.144531 311.382812 481.316406 312.5 482.4375 C 313.621094 483.558594 314.792969 484.621094 316.019531 485.625 C 317.242188 486.628906 318.511719 487.570312 319.828125 488.453125 C 321.144531 489.332031 322.503906 490.144531 323.898438 490.890625 C 325.296875 491.636719 326.726562 492.316406 328.191406 492.921875 C 329.652344 493.527344 331.144531 494.058594 332.660156 494.519531 C 334.175781 494.980469 335.707031 495.363281 337.261719 495.671875 C 338.816406 495.980469 340.378906 496.214844 341.957031 496.367188 C 343.53125 496.523438 345.113281 496.601562 346.695312 496.601562 C 352.902344 496.5625 358.878906 495.375 364.625 493.035156 Z M 364.625 493.03125 " fill-opacity="1" fill-rule="nonzero"/></svg>